HIERARCHY
ROOT Hips
{
	OFFSET 0.00000 0.00000 0.00000
	CHANNELS 6 Xposition Yposition Zposition Zrotation Yrotation Xrotation 
	JOINT LHipJoint
	{
		OFFSET 0 0 0
		CHANNELS 3 Zrotation Yrotation Xrotation
		JOINT LeftUpLeg
		{
			OFFSET 1.77779 -1.88989 0.48267
			CHANNELS 3 Zrotation Yrotation Xrotation
			JOINT LeftLeg
			{
				OFFSET 2.53442 -6.96327 0.00000
				CHANNELS 3 Zrotation Yrotation Xrotation
				JOINT LeftFoot
				{
					OFFSET 2.71068 -7.44755 0.00000
					CHANNELS 3 Zrotation Yrotation Xrotation
					JOINT LeftToeBase
					{
						OFFSET 0.17992 -0.49431 2.22524
						CHANNELS 3 Zrotation Yrotation Xrotation
						End Site
						{
							OFFSET 0.00000 -0.00000 1.14687
						}
					}
				}
			}
		}
	}
	JOINT RHipJoint
	{
		OFFSET 0 0 0
		CHANNELS 3 Zrotation Yrotation Xrotation
		JOINT RightUpLeg
		{
			OFFSET -1.58469 -1.88989 0.48267
			CHANNELS 3 Zrotation Yrotation Xrotation
			JOINT RightLeg
			{
				OFFSET -2.60386 -7.15404 0.00000
				CHANNELS 3 Zrotation Yrotation Xrotation
				JOINT RightFoot
				{
					OFFSET -2.73334 -7.50979 0.00000
					CHANNELS 3 Zrotation Yrotation Xrotation
					JOINT RightToeBase
					{
						OFFSET -0.25618 -0.70384 2.21822
						CHANNELS 3 Zrotation Yrotation Xrotation
						End Site
						{
							OFFSET -0.00000 -0.00000 1.16381
						}
					}
				}
			}
		}
	}
	JOINT LowerBack
	{
		OFFSET 0 0 0
		CHANNELS 3 Zrotation Yrotation Xrotation
		JOINT Spine
		{
			OFFSET 0.03410 2.01612 -0.22230
			CHANNELS 3 Zrotation Yrotation Xrotation
			JOINT Spine1
			{
				OFFSET 0.03465 2.03012 0.00937
				CHANNELS 3 Zrotation Yrotation Xrotation
				JOINT Neck
				{
					OFFSET 0 0 0
					CHANNELS 3 Zrotation Yrotation Xrotation
					JOINT Neck1
					{
						OFFSET -0.00219 1.70459 0.20857
						CHANNELS 3 Zrotation Yrotation Xrotation
						JOINT Head
						{
							OFFSET 0.02518 1.72339 -0.22179
							CHANNELS 3 Zrotation Yrotation Xrotation
							End Site
							{
								OFFSET 0.00282 1.74122 -0.09823
							}
						}
					}
				}
				JOINT LeftShoulder
				{
					OFFSET 0 0 0
					CHANNELS 3 Zrotation Yrotation Xrotation
					JOINT LeftArm
					{
						OFFSET 3.36358 1.00547 -0.37661
						CHANNELS 3 Zrotation Yrotation Xrotation
						JOINT LeftForeArm
						{
							OFFSET 5.06507 -0.00000 0.00000
							CHANNELS 3 Zrotation Yrotation Xrotation
							JOINT LeftHand
							{
								OFFSET 3.60196 -0.00000 0.00000
								CHANNELS 3 Zrotation Yrotation Xrotation
								JOINT LeftFingerBase
								{
									OFFSET 0 0 0
									CHANNELS 3 Zrotation Yrotation Xrotation
									JOINT LeftHandIndex1
									{
										OFFSET 0.45035 -0.00000 0.00000
										CHANNELS 3 Zrotation Yrotation Xrotation
										End Site
										{
											OFFSET 0.36308 -0.00000 0.00000
										}
									}
								}
								JOINT LThumb
								{
									OFFSET 0 0 0
									CHANNELS 3 Zrotation Yrotation Xrotation
									End Site
									{
										OFFSET 0.36862 -0.00000 0.36862
									}
								}
							}
						}
					}
				}
				JOINT RightShoulder
				{
					OFFSET 0 0 0
					CHANNELS 3 Zrotation Yrotation Xrotation
					JOINT RightArm
					{
						OFFSET -3.50159 0.80383 -0.71526
						CHANNELS 3 Zrotation Yrotation Xrotation
						JOINT RightForeArm
						{
							OFFSET -5.36394 -0.00000 0.00000
							CHANNELS 3 Zrotation Yrotation Xrotation
							JOINT RightHand
							{
								OFFSET -3.58035 -0.00000 0.00000
								CHANNELS 3 Zrotation Yrotation Xrotation
								JOINT RightFingerBase
								{
									OFFSET 0 0 0
									CHANNELS 3 Zrotation Yrotation Xrotation
									JOINT RightHandIndex1
									{
										OFFSET -0.66375 -0.00000 0.00000
										CHANNELS 3 Zrotation Yrotation Xrotation
										End Site
										{
											OFFSET -0.53513 -0.00000 0.00000
										}
									}
								}
								JOINT RThumb
								{
									OFFSET 0 0 0
									CHANNELS 3 Zrotation Yrotation Xrotation
									End Site
									{
										OFFSET -0.54330 -0.00000 0.54330
									}
								}
							}
						}
					}
				}
			}
		}
	}
}
MOTION
Frames: 8
Frame Time: .0083333
0.8912 17.614 -27.7539 0 0 0 0 0 0 -21 0 0 0 0 0 0 0 0 0 0 0 0 0 0 21 0 0 0 0 0 0 0 0 0 0 0 0 0 0 0 0 0 0 0 0 0 0 -16 0 0 21 0 0 11 0 0 0 -8 0 0 0 0 0 0 0 0 0 0 0 0 0 0 0 0 0 0 0 0 8 0 0 0 0 0 0 0 0 0 0 0 0 0 0 0 0 0
0.8912 17.6140 -27.7539 2.7007 2.4781 -2.5571 0.0000 0.0000 0.0000 -26.6378 1.4564 19.2200 0.7957 5.6938 15.8985 0.2707 -9.4295 -10.6278 0.2765 -3.3819 -9.3439 0.0000 0.0000 0.0000 16.5892 14.5998 -25.4514 -1.4543 -7.6225 21.5732 0.0032 -8.4999 -12.0532 -0.0000 0.0125 -0.0343 -5.6422 -2.0621 9.2003 1.7192 -3.2523 0.4078 5.3856 -1.4847 -4.3196 -1.9956 -2.2215 -17.0075 -0.2881 -2.4886 21.1725 -0.0943 -1.3566 9.5229 -0.0000 0.0000 0.0000 -81.4611 -6.4705 26.4202 16.4584 -26.1383 -3.8457 -0.0000 0.0000 -6.0300 35.4330 21.3927 14.5493 -7.1250 0.0000 -0.0000 7.3693 55.5065 1.9079 -0.0000 0.0000 0.0000 89.4516 -0.9102 7.1145 -13.2537 21.6578 -2.5462 0.0000 0.0000 5.4085 -18.8151 21.4825 -7.1125 7.1250 -0.0000 -0.0000 6.2554 -7.5146 5.4168
0.8705 17.6471 -27.5372 1.9277 2.5659 -2.5487 0.0000 0.0000 0.0000 -25.8661 0.9013 19.1250 0.9624 6.2464 17.5010 0.2224 -9.2722 -9.9286 0.4620 -4.3600 -12.0919 0.0000 0.0000 0.0000 17.4373 14.9304 -25.0110 -1.4915 -7.7151 21.8520 0.1032 -9.1889 -11.0327 -0.0002 -0.0965 0.2650 -4.9147 -2.1614 9.2392 1.9855 -3.3002 0.2483 5.2685 -1.5097 -4.5269 -2.4697 -2.5667 -16.5393 -0.2300 -2.8707 21.5450 -0.0429 -1.5690 9.5801 0.0000 -0.0000 0.0000 -81.7456 -6.0307 26.3349 16.5920 -26.3168 -3.9047 -0.0000 0.0000 -6.1669 35.4426 21.2661 14.4757 -7.1250 0.0000 -0.0000 7.3910 55.3628 1.8877 0.0000 -0.0000 0.0000 89.3576 -1.2503 6.8256 -13.1474 21.5028 -2.5070 0.0000 0.0000 5.6402 -18.7234 21.2877 -7.0151 7.1250 -0.0000 -0.0000 6.3001 -7.7283 5.4295
0.8564 17.6753 -27.3192 1.2652 2.4509 -2.5789 0.0000 0.0000 0.0000 -25.3101 0.4002 18.7930 1.1967 6.9410 19.5408 0.2235 -8.7980 -9.7460 0.9899 -6.3324 -17.7520 0.0000 0.0000 0.0000 18.3046 14.9853 -24.6142 -1.5405 -7.8351 22.2142 0.1273 -9.0199 -10.1546 -0.0018 -0.2730 0.7501 -4.0900 -2.0176 9.0629 2.0534 -3.0102 0.3769 4.8249 -1.3905 -4.3670 -2.3569 -2.8135 -16.9234 -0.2448 -3.2321 21.8378 -0.1227 -1.7284 9.7566 0.0000 0.0000 0.0000 -81.7792 -6.2783 26.6928 16.5772 -26.2970 -3.8982 -0.0000 0.0000 -6.1415 35.0158 20.2225 13.6138 -7.1250 0.0000 -0.0000 7.0002 54.0620 1.5651 0.0000 0.0000 0.0000 89.5992 -0.9399 5.6270 -12.8886 21.1237 -2.4130 0.0000 0.0000 6.2106 -18.8827 21.2079 -7.0536 7.1250 -0.0000 -0.0000 6.1934 -7.7882 5.3291
0.8499 17.6955 -27.1023 0.7105 2.2693 -2.6500 0.0000 0.0000 0.0000 -24.9366 -0.0847 18.5339 1.4384 7.5826 21.4533 0.1253 -9.0600 -8.4411 1.0359 -6.4734 -18.1644 0.0000 0.0000 0.0000 19.1000 14.8667 -24.2396 -1.6002 -7.9784 22.6484 0.1009 -8.1415 -9.2383 -0.0055 -0.4779 1.3130 -3.3945 -1.9808 8.9967 2.1966 -2.8807 0.3818 4.5633 -1.3391 -4.3656 -2.3117 -2.8029 -17.1162 -0.3369 -3.2020 22.0005 -0.1627 -1.7213 9.8475 -0.0000 0.0000 0.0000 -82.0679 -6.1465 26.5792 16.5333 -26.2385 -3.8788 -0.0000 0.0000 -6.1754 35.1774 20.2410 13.7041 -7.1250 0.0000 -0.0000 7.1767 54.1188 1.6149 -0.0000 0.0000 0.0000 89.5859 -0.8110 4.6476 -12.5547 20.6313 -2.2940 0.0000 0.0000 6.8918 -18.9531 21.5624 -7.1932 7.1250 -0.0000 -0.0000 6.1736 -7.4124 5.3575
0.8421 17.7090 -26.8940 0.1807 2.0584 -2.7782 0.0000 0.0000 0.0000 -24.4083 -0.1898 18.0646 1.7210 8.2591 23.5039 -0.0770 -10.5272 -6.0862 0.7488 -5.5273 -15.4189 0.0000 0.0000 0.0000 19.9146 14.6634 -23.8289 -1.6707 -8.1437 23.1513 0.0670 -7.1536 -8.4519 -0.0051 -0.4593 1.2620 -2.8801 -1.9730 9.2118 2.4444 -2.8100 0.2478 4.5402 -1.3026 -4.6457 -2.4126 -2.7213 -17.0277 -0.4152 -3.0440 22.2158 -0.1528 -1.6670 9.9069 0.0000 -0.0000 0.0000 -82.5068 -5.6747 26.4111 16.4795 -26.1665 -3.8550 -0.0000 0.0000 -6.3605 35.3789 20.6224 14.0420 -7.1250 0.0000 -0.0000 7.3713 54.6048 1.7465 0.0000 -0.0000 0.0000 89.3300 -1.0081 3.8774 -12.2264 20.1434 -2.1796 0.0000 0.0000 7.5336 -18.4878 22.3905 -7.2583 7.1250 -0.0000 -0.0000 6.5265 -6.6270 5.7681
0.8372 17.7221 -26.6843 -0.1193 1.6377 -2.9435 0.0000 0.0000 0.0000 -24.1357 -0.0555 17.4852 2.0358 8.9402 25.6084 -0.2520 -11.2344 -3.2651 0.5135 -4.5932 -12.7518 0.0000 0.0000 0.0000 20.6142 14.0847 -23.5116 -1.7560 -8.3383 23.7463 0.0484 -6.2647 -7.5013 -0.0000 0.0367 -0.1010 -2.5361 -1.9317 9.3650 2.5933 -2.7130 0.1585 4.5013 -1.2542 -4.8433 -2.5015 -2.5812 -16.6992 -0.4810 -2.8173 22.1538 -0.1253 -1.5782 9.8217 0.0000 0.0000 0.0000 -82.9659 -5.1303 25.8722 16.4802 -26.1674 -3.8553 -0.0000 0.0000 -6.3317 35.6247 21.1400 14.4901 -7.1250 0.0000 -0.0000 7.6070 55.2590 1.9241 0.0000 0.0000 0.0000 89.1344 -1.2277 3.2733 -11.9303 19.7000 -2.0787 0.0000 0.0000 8.2925 -18.5241 22.5436 -7.3200 7.1250 -0.0000 -0.0000 6.5149 -6.4644 5.7784
0.8336 17.7465 -26.4679 -0.2843 1.1947 -2.9807 0.0000 0.0000 0.0000 -23.9405 0.1513 16.6962 2.3596 9.5781 27.6210 -0.3419 -11.1562 -0.4829 0.4803 -4.4445 -12.3307 0.0000 0.0000 0.0000 21.0934 13.5714 -23.3945 -1.8782 -8.6076 24.5753 0.0291 -5.4342 -6.7816 -0.0072 0.5486 -1.5074 -2.2428 -1.8041 9.3103 2.6295 -2.5085 0.1091 4.3465 -1.1575 -4.8944 -2.4173 -2.5737 -16.5552 -0.5657 -2.8136 22.0809 -0.1656 -1.5793 9.7659 0.0000 0.0000 0.0000 -83.2478 -4.6309 25.6636 16.5708 -26.2884 -3.8953 -0.0000 0.0000 -6.4472 35.5246 22.0115 14.9803 -7.1250 0.0000 -0.0000 7.4178 56.2404 2.0528 0.0000 0.0000 0.0000 89.1372 -1.2369 2.2713 -11.6544 19.2844 -1.9867 0.0000 0.0000 9.0907 -18.6557 22.2619 -7.2888 7.1250 -0.0000 -0.0000 6.4117 -6.7347 5.6519
